<?xml version="1.0" encoding="iso-8859-1"?>
<!-- Generator: Adobe Illustrator 25.1.0, SVG Export Plug-In . SVG Version: 6.00 Build 0)  -->
<svg version="1.1" id="Layer_1" xmlns="http://www.w3.org/2000/svg" xmlns:xlink="http://www.w3.org/1999/xlink" x="0px" y="0px"
	 width="720px" height="720px" viewBox="0 0 720 720" enable-background="new 0 0 720 720" xml:space="preserve">
<path fill="#3DA549" d="M417.433,311.558c6.266,4.814,169.445-81.481,248.11-44.927c73.141,39.995,64.524,155.124-5.527,190.982
	c-31.924,15.633,29.383,69.074-34.715,133.871C501.358,706.21,418.804,547.256,372.398,445.771
	c7.575,83.753,25.694,166.514,59.602,243.74c7.426,15.959-22.825,16.498-43.947,25.821c-9.441,4.167-10.423-3.74-11.872-8.819
	c-22.901-85.652-37.673-172.777-24.824-260.742c-11.075,7.275-89.037,186.9-179.262,183.967
	c-61.529-3.454-128.181-69.309-103.209-146.925c3.687-11.459,3.159-17.982-9.013-25.382
	c-101.571-55.118-57.807-221.08,64.861-203.582c65.586,8.789,177.062,61.133,172.967,57.708
	c-59.911-51.448-128.126-115.516-140.863-197.941C148.593,11.923,286.33-28.778,353.16,31.99c8.798,7.227,12.504,0.413,16.708-2.763
	c25.742-19.45,54.276-26.866,86.381-25.014c86.088,4.964,131.132,82.48,91.865,159.457
	C518.153,224.792,467.629,267.174,417.433,311.558z"/>
<g>
</g>
<g>
</g>
<g>
</g>
<g>
</g>
<g>
</g>
</svg>
